#!OML:ASF H:\Not Pregnant\Project 1\Capture day 1\Session 1\non-pregnant.ASF
:FULLY-SPECIFIED
:DEGREES
679
root 3.20684 16.4488 -22.525 -166.226 89.4232 -180.705
lowerback -2.48685 1.58719 1.49079
upperback -5.14787 2.21131 -1.0682
thorax -3.8116 1.07832 -1.95671
lowerneck 25.6589 -11.758 -31.3302
upperneck -11.1735 -21.7221 45.0548
head 2.65654 -13.9278 24.3479
rclavicle 1.40578e-014 -8.94531e-015
rhumerus -27.493 4.4971 -91.4755
rradius 40.9168
rwrist 10.852
rhand -14.5106 -0.32181
rfingers 7.12502
rthumb 11.6367 -29.9787
lclavicle 1.40578e-014 -8.94531e-015
lhumerus -45.1077 -8.57475 85.8349
lradius 28.1447
lwrist 30.6048
lhand -17.5215 -10.6006
lfingers 7.12502
lthumb 8.73207 19.1988
rfemur -40.3867 35.7536 2.92047
rtibia 43.3923
rfoot -8.90699 33.9862
rtoes 19.1714
lfemur -24.8403 -9.39336 -9.81872
ltibia 29.2608
lfoot -13.664 -31.8714
ltoes 11.9225
680
root 3.17602 16.456 -22.5723 -173.461 90.7919 -188.027
lowerback -2.33977 1.51185 1.25055
upperback -5.0751 2.10862 -0.956099
thorax -3.83468 1.0357 -1.70916
lowerneck 25.6714 -11.7313 -31.3611
upperneck -11.3894 -21.6842 45.0909
head 2.59121 -13.9258 24.4001
rclavicle 2.97059e-014 3.97569e-016
rhumerus -27.5315 2.93818 -90.383
rradius 40.7155
rwrist 11.0168
rhand -15.13 -0.795455
rfingers 7.12502
rthumb 11.0394 -30.4852
lclavicle 2.97059e-014 3.97569e-016
lhumerus -45.1087 -9.57287 86.0309
lradius 28.1785
lwrist 31.0095
lhand -17.1875 -10.2057
lfingers 7.12502
lthumb 9.05445 19.58
rfemur -41.0662 35.7331 2.7121
rtibia 43.7748
rfoot -7.71648 34.2338
rtoes 19.8418
lfemur -24.6423 -8.82445 -10.0855
ltibia 29.2612
lfoot -13.5418 -31.3603
ltoes 13.5947
681
root 3.14557 16.4637 -22.615 -172.583 92.2101 -187.193
lowerback -2.16695 1.45838 0.986556
upperback -4.9908 2.03494 -0.822598
thorax -3.85988 1.00867 -1.42685
lowerneck 25.7016 -11.702 -31.3826
upperneck -11.6057 -21.6417 45.1123
head 2.51493 -13.921 24.4432
rclavicle 2.9445e-015 -1.19271e-015
rhumerus -27.5607 1.43058 -89.2837
rradius 40.4874
rwrist 11.1702
rhand -15.7877 -1.33718
rfingers 7.12502
rthumb 10.405 -31.0597
lclavicle 2.9445e-015 -1.19271e-015
lhumerus -45.1119 -10.5477 86.2005
lradius 28.2268
lwrist 31.37
lhand -16.8633 -9.76954
lfingers 7.12502
lthumb 9.36724 20.0023
rfemur -41.6815 35.7528 2.62577
rtibia 44.1428
rfoot -6.48847 34.4215
rtoes 20.5066
lfemur -24.3719 -8.17466 -10.3076
ltibia 29.2461
lfoot -14.9842 -30.2109
ltoes 10.3972
682
root 3.11573 16.4719 -22.6541 -172.686 93.6086 -187.303
lowerback -1.98648 1.41009 0.698532
upperback -4.88797 1.96709 -0.685502
thorax -3.8701 0.985408 -1.12713
lowerneck 25.7517 -11.6843 -31.3702
upperneck -11.8322 -21.6028 45.1266
head 2.4264 -13.9189 24.4727
rclavicle -9.69075e-016 -9.14409e-015
rhumerus -27.5612 -0.0988159 -88.1642
rradius 40.2133
rwrist 11.3834
rhand -16.443 -1.90756
rfingers 7.12502
rthumb 9.77274 -31.6608
lclavicle -9.69075e-016 -9.14409e-015
lhumerus -45.1059 -11.5338 86.3454
lradius 28.2925
lwrist 31.6965
lhand -16.5444 -9.31889
lfingers 7.12502
lthumb 9.6749 20.4389
rfemur -42.2 35.7567 2.65513
rtibia 44.4994
rfoot -5.2845 34.5235
rtoes 21.0971
lfemur -24.0473 -7.51368 -10.5
ltibia 29.2014
lfoot -16.2555 -29.0635
ltoes 7.37209
683
root 3.08665 16.4808 -22.691 -172.699 94.9156 -187.294
lowerback -1.80424 1.34111 0.39872
upperback -4.77442 1.87067 -0.551009
thorax -3.87028 0.948123 -0.822758
lowerneck 25.8201 -11.6736 -31.3509
upperneck -12.0561 -21.5757 45.1344
head 2.33798 -13.9236 24.4938
rclavicle 1.92573e-015 7.95139e-015
rhumerus -27.5395 -1.60437 -87.0311
rradius 39.8931
rwrist 11.6101
rhand -17.1608 -2.55564
rfingers 7.12502
rthumb 9.08017 -32.3402
lclavicle 1.92573e-015 7.95139e-015
lhumerus -45.0986 -12.4999 86.4635
lradius 28.3693
lwrist 31.9634
lhand -16.2618 -8.89186
lfingers 7.12502
lthumb 9.94755 20.8531
rfemur -42.5937 35.6724 2.79067
rtibia 44.8378
rfoot -4.14766 34.5425
rtoes 21.5706
lfemur -23.7093 -6.90546 -10.682
ltibia 29.1415
lfoot -17.3642 -27.9411
ltoes 4.53889
684
root 3.05878 16.4901 -22.7272 -172.742 96.0928 -187.293
lowerback -1.62491 1.25115 0.12803
upperback -4.64921 1.74517 -0.433654
thorax -3.85447 0.894731 -0.551184
lowerneck 25.9186 -11.6836 -31.3029
upperneck -12.2915 -21.5707 45.1449
head 2.24716 -13.9429 24.5053
rclavicle 7.31776e-015 2.38542e-015
rhumerus -27.4892 -3.1612 -85.8799
rradius 39.5058
rwrist 11.9046
rhand -17.8698 -3.21299
rfingers 7.12502
rthumb 8.39597 -33.0261
lclavicle 7.31776e-015 2.38542e-015
lhumerus -45.0772 -13.4752 86.5459
lradius 28.4486
lwrist 32.1719
lhand -16.0114 -8.51849
lfingers 7.12502
lthumb 10.1891 21.2148
rfemur -42.8433 35.4598 3.04503
rtibia 45.1504
rfoot -3.10435 34.4786
rtoes 21.9298
lfemur -23.3811 -6.41635 -10.8421
ltibia 29.0839
lfoot -18.3408 -26.8249
ltoes 1.88133
685
root 3.02834 16.4994 -22.7746 -172.699 97.1866 -187.289
lowerback -1.47773 1.1616 0.0611041
upperback -4.56296 1.62134 -0.377869
thorax -3.85235 0.834143 -0.456317
lowerneck 26.0497 -11.7151 -31.2216
upperneck -12.529 -21.589 45.158
head 2.15586 -13.9778 24.5064
rclavicle -2.17918e-014 -1.5704e-014
rhumerus -27.4234 -4.78775 -84.7138
rradius 39.0551
rwrist 12.2774
rhand -18.5235 -3.86491
rfingers 7.12502
rthumb 7.76506 -33.7023
lclavicle -2.17918e-014 -1.5704e-014
lhumerus -45.0604 -14.4888 86.601
lradius 28.5421
lwrist 32.3403
lhand -15.7874 -8.20245
lfingers 7.12502
lthumb 10.4053 21.5201
rfemur -43.1162 34.9341 3.30672
rtibia 45.4247
rfoot -2.01624 34.5259
rtoes 22.3211
lfemur -23.2277 -6.12239 -11.0032
ltibia 29.0679
lfoot -19.2476 -25.5319
ltoes -0.882429
